<svg xmlns="http://www.w3.org/2000/svg" width="20" height="15" viewBox="0 0 20 15">
    <g fill="none" fill-rule="evenodd">
        <g fill="#FFF" fill-rule="nonzero">
            <g>
                <g>
                    <path d="M10.092 9.439c-.18.113-.383.158-.563.158-.18 0-.383-.045-.563-.158L0 3.965v7.276c0 1.555 1.262 2.816 2.816 2.816h13.449c1.554 0 2.816-1.261 2.816-2.816V3.965l-8.989 5.474z" transform="translate(-56.000000, -691.000000) translate(37.500000, 558.750000) translate(18.573999, 132.971442)"/>
                    <path d="M16.265 0H2.815C1.488 0 .36.946.09 2.208l9.462 5.767 9.439-5.767C18.72.946 17.594 0 16.265 0z" transform="translate(-56.000000, -691.000000) translate(37.500000, 558.750000) translate(18.573999, 132.971442)"/>
                </g>
            </g>
        </g>
    </g>
</svg>
