<svg xmlns="http://www.w3.org/2000/svg" width="24" height="24" viewBox="0 0 24 24">
    <g fill="none" fill-rule="evenodd">
        <g fill="#BDBDBD">
            <g>
                <g>
                    <g>
                        <path d="M14.712 15.617c.5 0 .904.405.904.904s-.404.904-.904.904H9.287c-.499 0-.904-.405-.904-.904 0-.5.405-.904.904-.904zM12 12c.499 0 .904.405.904.904 0 .5-.405.904-.904.904H9.287c-.499 0-.904-.405-.904-.904S8.788 12 9.287 12zm4.922 7.233H7.077c-.277 0-.502-.202-.502-.452V5.22c0-.25.225-.452.502-.452H12v2.848c0 1.421 1.1 2.577 2.454 2.577h2.971v8.59c0 .249-.225.451-.503.451zM13.808 5.651l2.48 2.732h-1.834c-.356 0-.646-.344-.646-.768V5.65zm5.19 3.029l-4.922-5.425c-.172-.19-.414-.297-.67-.297h-6.33c-1.273 0-2.31 1.015-2.31 2.26v13.563c0 1.246 1.037 2.26 2.31 2.26h9.846c1.274 0 2.311-1.014 2.311-2.26V9.287c0-.225-.084-.44-.235-.607z" transform="translate(-129.000000, -725.000000) translate(0.000000, 716.000000) translate(94.000000, 1.000000) translate(35.000000, 8.000000)"/>
                    </g>
                </g>
            </g>
        </g>
    </g>
</svg>
