<svg xmlns="http://www.w3.org/2000/svg" width="59" height="32" viewBox="0 0 59 32">
    <g fill="none" fill-rule="evenodd">
        <g>
            <g>
                <g>
                    <g>
                        <path fill="#003154" d="M44.948 23.906L40.146 19.101 40.168 16.651 41.398 15.42 43.847 15.398 48.649 20.203z" transform="translate(-24.000000, -853.000000) translate(0.000000, 816.000000) translate(24.000000, 36.500000) translate(0.000000, 0.500000)"/>
                        <path fill="#CBCBCB" d="M9.877 0L0 10.458 0 21.042 9.877 31.5 48.898 31.5 58.774 21.042 58.774 10.457 48.898 0z" transform="translate(-24.000000, -853.000000) translate(0.000000, 816.000000) translate(24.000000, 36.500000) translate(0.000000, 0.500000)"/>
                        <path fill="#FFF" d="M48.014 29.579L56.854 20.408 56.854 11.476 48.014 2.305 10.761 2.305 1.921 11.476 1.921 20.408 10.761 29.579z" transform="translate(-24.000000, -853.000000) translate(0.000000, 816.000000) translate(24.000000, 36.500000) translate(0.000000, 0.500000)"/>
                        <path fill="#CBCBCB" d="M43.715 15.721l4.479 4.482-3.246 3.248-4.479-4.482.019-2.183 1.045-1.046 2.182-.019zm-2.02 1.514c-.014.003-.306.111-.494.387-.033.049.007.114.055.169l.001.001.133.133c.005.005.012.008.019.007.006 0 .012-.003.017-.008l.037-.041c.262-.262.688-.262.95 0 .262.261.262.688 0 .95l-.041.037c-.005.005-.008.01-.009.018 0 .007.003.013.008.018l.132.133 1.724 1.725c.003.003.006.004.01.005.062.049.14.058.228.03.008.003.017.002.023-.004l.025-.018.02-.014.021-.013.014-.008.02-.012.023-.01c.005-.004.01-.006.016-.008l.035-.015.012-.004c.062-.023.126-.036.19-.04h.056l.046.003h.005c.08.008.157.03.23.066l.014.008.03.016.02.013c.01.005.017.01.025.016l.027.02.017.015c.015.012.03.024.043.038l.038.041.01.013.024.031.009.014.02.033.008.013.02.037.005.01.018.044.002.005c.05.14.055.294.01.437v.005l-.017.046-.004.009c-.015.034-.031.067-.051.098l.02.013-.024-.008c-.007.012-.016.023-.024.033-.022.029-.045.054-.046.054-.008.01-.008.025.001.034.333.332.377.177.384.171.005-.004.008-.01.009-.018 0-.006-.003-.013-.007-.018l.075-.033c.177-.209.174-.32.1-.433.057-.088.343-.545.191-.807.022-.072.149-.501.176-.66v-.008c.008-.04.014-.078.018-.115 0-.004 0-.008-.002-.011l-.008-.16c0-.005-.1-.166-.105-.17l-1.35-1.35c-.129-.13-.245-.158-.392-.166h-.004c-.022-.002-.044-.003-.067-.003-.155-.005-.842-.034-.931-.038l-.013-.013c-.2-.204-.544-.556-.982-.688-.005-.003-.011-.005-.018-.004-.184-.053-.384-.066-.597-.013h-.005c-.03.008-.06.017-.092.028l-.059-.06c-.006-.005-.014-.007-.022-.006zm2.815 3.692c-.213.212-.213.559 0 .772.213.213.56.213.772 0 .213-.213.213-.56 0-.772-.213-.213-.56-.213-.772 0zm-2.956-2.958c-.212.213-.212.56 0 .773.213.213.56.213.772 0 .213-.213.213-.56 0-.773-.212-.213-.559-.213-.772 0zm.353-1.568c-.195-.196-.512-.196-.707 0-.196.195-.196.512 0 .707.195.195.512.195.707 0 .195-.195.195-.512 0-.707zM41.097 16.101c-.026 0-.05-.012-.066-.034-.166-.24-.405-.519-.675-.788-.193-.193-.393-.373-.58-.52-.034-.028-.04-.079-.013-.113.028-.035.079-.04.113-.014.191.151.396.335.594.533.276.276.522.563.693.81.026.036.016.086-.02.111-.014.01-.03.015-.046.015" transform="translate(-24.000000, -853.000000) translate(0.000000, 816.000000) translate(24.000000, 36.500000) translate(0.000000, 0.500000)"/>
                        <path fill="#003154" d="M39.201 14.04c-.113-.112-.295-.112-.408 0-.113.113-.113.296 0 .409.113.113.295.113.408 0 .113-.113.113-.296 0-.408z" transform="translate(-24.000000, -853.000000) translate(0.000000, 816.000000) translate(24.000000, 36.500000) translate(0.000000, 0.500000)"/>
                        <path fill="#CBCBCB" d="M36.207 16.997c.74 0 1.344.167 1.812.502.53.377.794.92.794 1.632 0 .475-.068.853-.205 1.136-.136.283-.388.557-.754.824-.075.051-.113.1-.113.146l.013.023.582 1.2c.182.378.323.677.422.899l.084.195c.058.141.088.228.088.26 0 .023-.033.04-.098.049-.107.017-.358.027-.752.029h-.178c-.425 0-.714-.01-.867-.029-.071-.01-.112-.018-.121-.024-.02-.01-.043-.042-.069-.098l-.214-.565c-.126-.325-.325-.804-.594-1.437-.049-.106-.15-.172-.305-.199l-.074-.008-.01.002c-.024.002-.09.003-.2.004h-.317c-.049 0-.073.083-.073.25 0 .22.02.55.06.988.041.439.062.769.062.99 0 .055-.015.087-.044.097l-.137.01c-.16.01-.393.017-.702.019h-.194c-.464 0-.743-.01-.837-.029-.095-.02-.142-.07-.142-.15 0-.314.014-.766.04-1.357l.011-.262c.035-.721.052-1.262.052-1.623 0-1.374-.031-2.446-.093-3.216l-.005-.068c-.003-.055.048-.093.154-.112.105-.02.601-.04 1.487-.059.601-.013 1.08-.02 1.437-.02zm-.657 1.447c-.309 0-.472.047-.492.141-.017.099-.027.361-.029.788v.167c0 .075.001.186.005.332.003.146.004.255.004.326 0 .017.052.033.156.05.198.028.406.043.624.043.71 0 1.066-.282 1.066-.848 0-.396-.13-.67-.39-.824-.2-.116-.516-.175-.944-.175zM28.317 16.91c.088 0 .224.007.407.023.184.017.32.025.411.025.066 0 .155-.003.268-.01l.12-.007c.17-.012.298-.017.382-.017.062 0 .119.053.17.16.061.13.166.38.315.75l.12.301c.236.592.555 1.411.958 2.458.773 2.011 1.16 3.06 1.16 3.148 0 .059-.041.1-.122.122-.087.023-.335.036-.745.039h-.16c-.466 0-.764-.013-.897-.039-.11-.023-.18-.096-.21-.22-.11-.467-.196-.717-.258-.75-.052-.022-.487-.034-1.305-.034-.552 0-.846.015-.882.044-.055.052-.116.226-.185.522-.061.27-.136.415-.224.438-.11.026-.48.04-1.11.04-.497 0-.745-.048-.745-.142 0-.085.366-1.123 1.1-3.114l.832-2.26.117-.32c.198-.546.314-.87.347-.973.039-.123.084-.185.136-.185zm.858 2.392c-.069.143-.184.453-.346.93-.176.507-.263.805-.263.892 0 .059.097.091.292.098.1.006.266.01.497.01.214 0 .332-.026.355-.078.006-.017.01-.04.01-.069 0-.107-.075-.402-.224-.887-.146-.467-.253-.766-.321-.896zM25.678 22.762c0 .052-.035.12-.103.205-.597.71-1.39 1.067-2.381 1.067-1.013 0-1.835-.347-2.465-1.038-.613-.67-.92-1.514-.92-2.534 0-.988.3-1.826.9-2.515.627-.721 1.425-1.082 2.392-1.082 1.052 0 1.877.324 2.474.97.065.071.098.135.098.19 0 .062-.113.29-.339.687-.225.396-.367.619-.426.668-.026.026-.058.039-.097.039-.017 0-.098-.065-.244-.195-.175-.156-.347-.278-.516-.366-.256-.13-.523-.195-.799-.195-.477 0-.859.18-1.144.536-.263.332-.395.741-.395 1.229 0 .493.132.908.395 1.242.285.364.667.546 1.144.546.283 0 .55-.062.804-.185.165-.081.334-.195.506-.341.143-.124.223-.186.239-.186.032 0 .065.019.097.054.052.058.193.261.424.61.237.36.356.558.356.594zM47.468 14.693c.006.087-.04.131-.137.131-.061 0-.24-.035-.533-.107-.294-.071-.475-.12-.543-.146-.679.266-1.33.4-1.953.4-1.003 0-1.826-.335-2.47-1.004-.636-.66-.954-1.493-.954-2.5 0-1.03.308-1.885.925-2.564.637-.702 1.463-1.053 2.48-1.053.493 0 .957.095 1.392.283.471.208.841.5 1.11.877.056.078.083.134.083.166 0 .104-.145.337-.436.7-.29.362-.477.543-.562.543-.02 0-.094-.067-.224-.2-.159-.16-.322-.283-.487-.37-.247-.134-.52-.2-.818-.2-.487 0-.874.182-1.16.546-.266.334-.399.752-.399 1.252 0 .53.138.949.414 1.257.286.319.69.478 1.213.478.331 0 .701-.083 1.11-.249-.01-.107-.039-.38-.087-.818-.042-.338-.063-.611-.063-.819 0-.062.02-.1.063-.112.016-.007.042-.01.078-.01.094 0 .236.01.426.027.19.018.333.027.43.027.105 0 .26-.007.468-.022.208-.015.364-.022.468-.022.08 0 .122.053.122.16 0 .157-.01.392-.027.707-.018.316-.027.551-.027.707 0 .42.031 1.046.093 1.881l.005.054zM40.152 8.162c0 .371-.015.927-.046 1.67-.03.742-.046 1.3-.046 1.674v3.21c0 .089-.047.133-.141.133-.078 0-.196.003-.353.01-.158.006-.276.009-.354.009-.084 0-.21-.006-.38-.02-.168-.012-.295-.019-.38-.019-.058 0-.128-.054-.209-.16-.234-.316-.76-1.014-1.578-2.096-.224-.302-.565-.747-1.022-1.336-.014-.02-.038-.039-.074-.058-.026.023-.039.058-.039.107 0 .377.011.943.032 1.696.021.754.032 1.32.032 1.696 0 .114-.044.17-.132.17h-1.685c-.094 0-.141-.05-.141-.15 0-.351.017-.88.051-1.59.034-.707.051-1.239.051-1.593 0-.373-.015-.932-.046-1.676-.031-.744-.046-1.301-.046-1.672 0-.071.063-.107.19-.107.188 0 .42-.013.696-.039.065-.006.193-.027.385-.063.162-.03.29-.044.385-.044.038 0 .099.055.18.166l1.816 2.49c.163.224.408.552.736.984.08.1.15.151.21.151.041 0 .063-.126.063-.38 0-.341-.02-.854-.057-1.54-.037-.685-.056-1.2-.056-1.544 0-.12.034-.181.103-.181.195 0 .488-.008.881-.024s.687-.025.882-.025c.061 0 .092.05.092.151zM32.642 11.247c0 .384.01.96.03 1.73.019.77.029 1.347.029 1.73 0 .065-.015.106-.044.122-.007.004-.049.01-.127.02-.211.026-.493.039-.847.039-.474 0-.776-.013-.906-.04-.094-.019-.141-.07-.141-.15 0 .051.014-.235.043-.858.06-1.316.088-2.18.088-2.593 0-.347-.011-.869-.034-1.564-.023-.695-.034-1.217-.034-1.564 0-.072.037-.108.112-.108.1 0 .252.005.455.015.203.01.355.015.456.015.1 0 .25-.005.445-.015.197-.01.345-.015.446-.015.094 0 .141.036.141.108 0 .347-.018.869-.056 1.564-.037.695-.056 1.217-.056 1.564zM30.056 9.78c0 .14-.026.262-.078.366-.425.841-1.005 1.727-1.739 2.656-.104.136-.155.26-.155.37 0 .172.01.43.029.775.02.345.029.601.029.77 0 .058-.013.094-.039.107-.006.003-.05.012-.132.025-.116.019-.409.029-.876.029-.47 0-.771-.01-.901-.03-.091-.012-.137-.06-.137-.14 0-.173.015-.435.044-.788.03-.352.044-.616.044-.792 0-.104-.039-.216-.117-.336-.393-.555-.954-1.407-1.685-2.554-.074-.126-.112-.23-.112-.311 0-.195-.01-.488-.03-.878-.018-.39-.028-.682-.028-.877 0-.107.032-.16.097-.16.198 0 .499.008.901.024.403.016.705.024.906.024.075 0 .112.024.112.073 0 .166-.007.415-.022.748-.014.333-.022.583-.022.748 0 .098.143.342.429.731.227.306.414.541.56.707.133-.156.31-.39.53-.702.28-.39.42-.625.42-.706 0-.163-.013-.409-.037-.739s-.036-.576-.036-.738c0-.068.014-.107.043-.117h.122c.195 0 .488-.009.88-.027.39-.018.685-.027.883-.027.065 0 .098.07.098.21 0 .172.003.431.01.777.006.346.009.607.009.782zM23.51 12.456c0 .828-.099 1.394-.297 1.696-.363.552-1.27.828-2.722.828-.656 0-1.161-.05-1.515-.15-.565-.163-.932-.474-1.1-.932-.085-.224-.127-.624-.127-1.199 0-.133.005-.33.014-.594.01-.263.015-.46.015-.59 0-.376-.018-.942-.054-1.696-.035-.754-.053-1.317-.053-1.69 0-.079.034-.118.102-.118.198 0 .498.009.899.025.4.016.7.024.898.024.081 0 .122.036.122.107 0 .43-.014 1.071-.041 1.928-.028.856-.042 1.498-.042 1.927 0 .51.054.855.16 1.033.144.244.442.365.897.365.666 0 .998-.323.998-.97 0-.47-.011-1.177-.034-2.119-.022-.942-.034-1.649-.034-2.12 0-.1.04-.151.122-.151.192 0 .48-.008.867-.024.386-.016.675-.025.867-.025.094 0 .141.04.141.117 0 .374-.015.937-.046 1.691s-.046 1.32-.046 1.696c0 .104.001.261.004.47.004.21.005.367.005.471zM14.403 8.002c.798.029 1.388.159 1.768.39.503.308.755.83.755 1.564 0 .191-.059.394-.176.609-.084.153-.195.305-.33.458-.121.133-.181.195-.181.185 0 .023.042.059.127.107.227.13.405.337.535.62.117.253.176.523.176.808 0 .598-.187 1.094-.56 1.487-.426.451-1.173.677-2.24.677-.082 0-.2-.002-.351-.005h-.346c-1.198 0-1.911-.024-2.138-.073-.095-.02-.142-.07-.142-.151 0-.348.02-.874.061-1.579.04-.705.061-1.233.061-1.584 0-.376-.02-1.085-.058-2.125-.01-.266-.028-.665-.054-1.199l-.005-.067c-.003-.062.048-.1.154-.113.084-.01.341-.016.772-.018h1.3c.468.002.759.004.872.009zm-.4 4.03c-.418 0-.646.015-.682.046-.035.031-.053.23-.053.597 0 .383.021.596.063.636.042.04.276.06.702.06.35 0 .597-.027.74-.082.237-.094.355-.282.355-.565 0-.293-.121-.49-.365-.595-.156-.065-.41-.097-.76-.097zm-.21-2.661c-.35 0-.525.026-.525.078 0 .062-.006.155-.017.28-.012.125-.017.219-.017.28 0 .325.028.507.083.546.035.03.242.044.618.044.698 0 1.047-.2 1.047-.6 0-.279-.14-.464-.419-.555-.155-.049-.412-.073-.77-.073z" transform="translate(-24.000000, -853.000000) translate(0.000000, 816.000000) translate(24.000000, 36.500000) translate(0.000000, 0.500000)"/>
                        <path fill="#CBCBCB" d="M41.239 16.686c-.108 0-.261-.067-.468-.204-.261-.172-.574-.435-.878-.74-.305-.304-.567-.616-.739-.877-.203-.31-.253-.498-.156-.595.04-.04.1-.055.173-.044.044.007.075.047.068.092-.007.043-.045.074-.092.067-.028-.004-.038 0-.038 0-.035.08.237.582.898 1.244.658.658 1.16.933 1.246.894-.002-.001 0-.015-.006-.046-.008-.043.02-.086.063-.095.045-.008.086.02.095.063.018.084.004.149-.04.193-.032.032-.073.048-.126.048" transform="translate(-24.000000, -853.000000) translate(0.000000, 816.000000) translate(24.000000, 36.500000) translate(0.000000, 0.500000)"/>
                    </g>
                </g>
            </g>
        </g>
    </g>
</svg>
