<svg xmlns="http://www.w3.org/2000/svg" width="31" height="30" viewBox="0 0 31 30">
    <g fill="none" fill-rule="evenodd">
        <g>
            <g>
                <path fill="#E6E6E6" d="M15 30c8.284 0 15-6.716 15-15 0-8.284-6.716-15-15-15C6.716 0 0 6.716 0 15c0 8.284 6.716 15 15 15zm0-3.88C8.858 26.12 3.88 21.143 3.88 15 3.88 8.858 8.857 3.88 15 3.88c6.142 0 11.12 4.978 11.12 11.12 0 6.142-4.978 11.12-11.12 11.12z" transform="translate(-96.000000, -28.000000) translate(96.493622, 28.000000)"/>
                <path fill="#003154" d="M15 0c8.284 0 15 6.716 15 15 0 1.59-.247 3.122-.705 4.56-.274.746-.99 1.28-1.83 1.28-1.072 0-1.94-.868-1.94-1.94 0-.218.036-.428.103-.624l-.03.105c.34-1.066.523-2.202.523-3.381 0-6.044-4.822-10.962-10.83-11.117L15 3.88l-.152-.006c-1-.077-1.788-.913-1.788-1.933C13.06.868 13.93 0 15 0z" transform="translate(-96.000000, -28.000000) translate(96.493622, 28.000000)"/>
            </g>
        </g>
    </g>
</svg>
