<svg xmlns="http://www.w3.org/2000/svg" width="31" height="31" viewBox="0 0 31 31">
    <g fill="none" fill-rule="evenodd">
        <g>
            <g>
                <path fill="#E6E6E6" d="M15 30c8.284 0 15-6.716 15-15 0-8.284-6.716-15-15-15C6.716 0 0 6.716 0 15c0 8.284 6.716 15 15 15zm0-3.88C8.858 26.12 3.88 21.143 3.88 15 3.88 8.858 8.857 3.88 15 3.88c6.142 0 11.12 4.978 11.12 11.12 0 6.142-4.978 11.12-11.12 11.12z" transform="translate(-62.000000, -77.000000) translate(62.108829, 77.961852)"/>
                <path fill="#003154" d="M15 0c8.284 0 15 6.716 15 15 0 8.284-6.716 15-15 15C8.397 30 2.79 25.733.787 19.807c-.096-.23-.148-.481-.148-.745 0-1.071.868-1.94 1.94-1.94.852 0 1.577.55 1.836 1.316l.005-.002c1.448 4.46 5.637 7.685 10.58 7.685 6.142 0 11.12-4.98 11.12-11.121 0-6.044-4.821-10.962-10.828-11.117L15 3.88l-.152-.006c-1-.077-1.788-.913-1.788-1.933C13.06.868 13.93 0 15 0z" transform="translate(-62.000000, -77.000000) translate(62.108829, 77.961852)"/>
            </g>
        </g>
    </g>
</svg>
