<svg xmlns="http://www.w3.org/2000/svg" width="31" height="30" viewBox="0 0 31 30">
    <g fill="none" fill-rule="evenodd">
        <g>
            <g>
                <path fill="#E6E6E6" d="M15 30c8.284 0 15-6.716 15-15 0-8.284-6.716-15-15-15C6.716 0 0 6.716 0 15c0 8.284 6.716 15 15 15zm0-3.88C8.858 26.12 3.88 21.143 3.88 15 3.88 8.858 8.857 3.88 15 3.88c6.142 0 11.12 4.978 11.12 11.12 0 6.142-4.978 11.12-11.12 11.12z" transform="translate(-27.000000, -28.000000) translate(27.685481, 28.000000)"/>
                <path fill="#003154" d="M15 0c3.188 0 6.144.995 8.575 2.69.077.048.151.1.221.158l.017.013c.424.356.693.89.693 1.487 0 1.071-.868 1.94-1.94 1.94-.411 0-.793-.129-1.108-.348l-.002.004c-1.719-1.228-3.802-1.978-6.056-2.058L15 3.88l-.152-.006c-1-.077-1.788-.913-1.788-1.933C13.06.868 13.93 0 15 0z" transform="translate(-27.000000, -28.000000) translate(27.685481, 28.000000)"/>
            </g>
        </g>
    </g>
</svg>
