<svg xmlns="http://www.w3.org/2000/svg" xmlns:xlink="http://www.w3.org/1999/xlink" width="199" height="130" viewBox="0 0 199 130">
    <defs>
        <path id="t7n8ofbc0a" d="M0 82L153 82 153 0 0 0z"/>
    </defs>
    <g fill="none" fill-rule="evenodd">
        <g>
            <g>
                <g>
                    <path fill="#003154" d="M25.71 0L0 27.223 0 54.776 25.71 82 127.29 82 153 54.777 153 27.222 127.29 0z" transform="translate(-89.000000, -342.000000) translate(90.000000, 342.000000) translate(22.000000, 0.000000)"/>
                    <path fill="#FFF000" d="M124.989 77L148 53.125 148 29.874 124.989 6 28.012 6 5 29.874 5 53.125 28.012 77z" transform="translate(-89.000000, -342.000000) translate(90.000000, 342.000000) translate(22.000000, 0.000000)"/>
                    <g transform="translate(-89.000000, -342.000000) translate(90.000000, 342.000000) translate(22.000000, 0.000000)">
                        <path fill="#003154" d="M52.829 68.396l-.951 3.176h-.499l-.664-2.3c-.024-.082-.04-.178-.048-.286h-.012c0 .042-.023.135-.067.28l-.719 2.306h-.477l-.963-3.176h.501l.67 2.408c.021.073.035.166.043.281h.024c.01-.099.03-.194.057-.286l.743-2.403h.438l.668 2.414c.015.057.031.15.045.281h.027c.004-.086.021-.18.051-.28l.659-2.415h.474zM57.382 68.396l-.951 3.176h-.498l-.664-2.3c-.024-.082-.04-.178-.048-.286h-.012c0 .042-.023.135-.067.28l-.719 2.306h-.477l-.963-3.176h.501l.67 2.408c.02.073.035.166.042.281h.025c.01-.099.029-.194.057-.286l.743-2.403h.438l.667 2.414c.016.057.032.15.046.281h.027c.003-.086.02-.18.051-.28l.658-2.415h.474zM61.936 68.396l-.951 3.176h-.498l-.665-2.3c-.023-.082-.04-.178-.048-.286h-.012c0 .042-.022.135-.066.28l-.719 2.306H58.5l-.963-3.176h.5l.67 2.408c.021.073.035.166.043.281h.025c.01-.099.029-.194.057-.286l.743-2.403h.438l.667 2.414c.016.057.03.15.045.281h.028c.003-.086.02-.18.05-.28l.659-2.415h.474zM62.024 71.306c0-.095.033-.175.099-.24.067-.066.144-.099.233-.099.088 0 .166.033.232.099.067.065.1.145.1.24 0 .089-.033.166-.098.234-.066.067-.144.101-.234.101-.09 0-.169-.032-.234-.097-.066-.066-.098-.145-.098-.238M64.032 70.282c0 .266.088.492.264.678.176.186.396.28.66.28.312 0 .557-.12.735-.36.179-.24.267-.575.267-1.003 0-.355-.084-.634-.252-.84-.168-.205-.392-.309-.672-.309-.294 0-.534.105-.72.315-.188.21-.282.471-.282.786v.453zm0 .825v.465h-.48v-4.699h.48v2.086h.012c.252-.424.618-.635 1.099-.635.405 0 .723.142.955.427.233.285.35.666.35 1.141 0 .536-.132.962-.394 1.28-.263.317-.615.475-1.055.475-.42 0-.738-.18-.955-.54h-.012zM69.805 71.572h-.48v-.502h-.012c-.21.384-.535.577-.979.577-.756 0-1.135-.451-1.135-1.354v-1.897h.474v1.819c0 .683.26 1.025.78 1.025.253 0 .462-.095.626-.283.164-.188.246-.433.246-.733v-1.828h.48v3.176zM73.335 68.396l-1.47 3.702c-.258.646-.617.97-1.079.97-.108 0-.213-.012-.313-.037v-.438c.102.035.2.052.292.052.258 0 .451-.156.58-.466l.26-.613-1.238-3.17h.531l.876 2.478c.006.016.028.092.067.227h.015l.06-.22.921-2.485h.498z"/>
                        <mask id="ivwlsiadnb" fill="#fff">
                            <use xlink:href="#t7n8ofbc0a"/>
                        </mask>
                        <path fill="#003154" d="M73.923 71.572h.707v-3.176h-.707v3.176zm-.099-4.318c0-.09.045-.167.135-.228.09-.062.198-.092.326-.092.134 0 .247.032.338.094.092.062.137.138.137.226 0 .09-.045.167-.137.226-.09.06-.204.091-.338.091-.128 0-.237-.03-.326-.089-.09-.06-.135-.135-.135-.228zM78.019 71.572h-.48v-1.813c0-.687-.251-1.03-.752-1.03-.258 0-.472.097-.642.292-.17.193-.255.44-.255.74v1.81h-.48v-3.175h.48v.532h.012c.237-.403.585-.605 1.041-.605.35 0 .615.112.8.337.183.223.276.547.276.972v1.94zM81.192 69.66c0-.259-.088-.478-.265-.66-.178-.18-.393-.272-.647-.272-.317 0-.568.118-.75.353-.182.234-.273.558-.273.971 0 .358.088.646.264.862.176.218.405.326.687.326.286 0 .521-.104.707-.312.185-.207.277-.469.277-.785v-.484zm.474 1.661c0 1.164-.55 1.746-1.651 1.746-.386 0-.73-.075-1.03-.226v-.49c.354.2.697.3 1.027.3.787 0 1.18-.422 1.18-1.266v-.355h-.012c-.25.412-.615.617-1.096.617-.392 0-.709-.142-.951-.426-.242-.284-.362-.662-.362-1.133 0-.542.13-.971.392-1.288.262-.317.614-.477 1.057-.477.43 0 .75.174.96.52h.012v-.447h.474v2.925zM84.858 71.424c-.25.149-.536.224-.86.224-.443 0-.805-.146-1.084-.436-.28-.29-.42-.674-.42-1.153 0-.527.148-.948.445-1.263.297-.315.694-.472 1.192-.472.273 0 .517.05.73.154v.502c-.238-.168-.49-.251-.758-.251-.324 0-.592.117-.805.351-.212.235-.318.547-.318.936 0 .37.097.667.291.89.194.223.461.334.799.334.28 0 .542-.093.788-.279v.463zM86.622 70.064c-.248.033-.431.093-.55.182-.118.087-.177.24-.177.452 0 .162.056.292.17.39.113.099.263.148.448.148.256 0 .467-.09.634-.271.167-.182.25-.41.25-.684v-.32l-.775.103zm-.915-1.441c.31-.2.667-.3 1.07-.3.735 0 1.104.392 1.104 1.173v2.076h-.48v-.5h-.018c-.22.384-.545.576-.975.576-.31 0-.557-.083-.739-.25-.183-.167-.273-.389-.273-.666 0-.59.347-.934 1.044-1.03l.957-.14c0-.552-.219-.828-.658-.828-.386 0-.73.132-1.032.396v-.507zM90.478 68.889c-.09-.07-.218-.103-.384-.103-.218 0-.4.106-.546.317-.148.212-.22.493-.22.844v1.625h-.481v-3.176h.48v.659h.012c.073-.224.183-.399.33-.524.149-.126.315-.19.498-.19.132 0 .236.015.31.043v.505zM90.303 71.306c0-.095.033-.175.1-.24.066-.066.143-.099.232-.099.089 0 .166.033.233.099.066.065.099.145.099.24 0 .089-.033.166-.098.234-.065.067-.144.101-.234.101-.091 0-.169-.032-.234-.097-.065-.066-.098-.145-.098-.238M93.98 71.424c-.249.149-.536.224-.86.224-.443 0-.804-.146-1.084-.436-.28-.29-.42-.674-.42-1.153 0-.527.15-.948.445-1.263.298-.315.695-.472 1.192-.472.274 0 .517.05.731.154v.502c-.238-.168-.491-.251-.758-.251-.325 0-.593.117-.805.351-.212.235-.319.547-.319.936 0 .37.098.667.291.89.195.223.461.334.8.334.28 0 .542-.093.788-.279v.463zM95.026 70.003c0 .376.098.675.295.9.196.224.456.337.783.337.338 0 .596-.108.777-.325.18-.218.27-.525.27-.924 0-.4-.09-.71-.271-.931-.182-.222-.44-.332-.776-.332-.329 0-.59.114-.785.342-.195.228-.293.539-.293.933m-.487.021c0-.527.143-.943.43-1.245.288-.304.68-.455 1.177-.455.463 0 .828.146 1.095.436.266.292.4.697.4 1.216 0 .504-.145.908-.432 1.214-.287.305-.668.458-1.139.458-.46 0-.831-.15-1.111-.448-.28-.298-.42-.69-.42-1.176M98.283 71.306c0-.095.034-.175.1-.24.067-.066.144-.099.233-.099.089 0 .166.033.233.099.066.065.099.145.099.24 0 .089-.033.166-.098.234-.066.067-.144.101-.234.101-.091 0-.169-.032-.234-.097-.065-.066-.099-.145-.099-.238M102.411 71.572L101.732 71.572 100.304 70.049 100.291 70.049 100.291 71.572 99.811 71.572 99.811 66.873 100.291 66.873 100.291 69.852 100.304 69.852 101.66 68.396 102.294 68.396 100.802 69.934zM104.57 68.889c-.09-.07-.218-.103-.383-.103-.217 0-.4.106-.547.317-.147.212-.22.493-.22.844v1.625h-.48v-3.176h.48v.659h.012c.073-.224.183-.399.331-.524.147-.126.313-.19.496-.19.133 0 .237.015.311.043v.505zM105.348 48.88l11.66 11.666 8.45-8.453-11.661-11.668-5.68.05-2.72 2.72-.049 5.684zm11.66 12.852l-12.501-12.51.057-6.377 3.202-3.205 6.375-.057 12.501 12.51-9.634 9.639z" mask="url(#ivwlsiadnb)"/>
                        <path fill="#003154" d="M119.196 56.674c0-.017-.006-.035-.018-.048l.195-.086c.461-.543.453-.834.259-1.127.15-.229.894-1.417.5-2.1.056-.188.387-1.305.456-1.72l.003-.02c.018-.104.035-.204.045-.3.001-.01-.001-.018-.004-.028l-.02-.414c-.002-.016-.264-.433-.276-.444l-3.514-3.516c-.335-.336-.636-.409-1.02-.432h-.011c-.056-.003-.114-.006-.174-.007-.402-.012-2.191-.089-2.423-.099l-.033-.034c-.521-.531-1.417-1.446-2.558-1.79-.013-.009-.029-.013-.045-.012-.48-.136-1.001-.17-1.556-.034l-.011.003c-.08.02-.16.043-.24.07l-.154-.152c-.015-.016-.038-.022-.059-.017-.036.007-.794.288-1.285 1.006-.085.127.02.296.144.44l.003.003.346.346c.013.013.03.02.048.019.017-.001.033-.01.045-.022.032-.036.063-.073.098-.107.681-.683 1.79-.683 2.472 0 .681.68.681 1.79 0 2.473-.035.034-.072.066-.108.098-.013.011-.021.027-.022.045 0 .018.006.035.02.048l.345.346 4.488 4.49c.006.007.015.012.024.014.161.126.363.151.595.077.02.007.042.004.06-.01l.065-.047c.035-.024.07-.048.107-.07l.034-.02c.037-.022.074-.042.112-.06l.044-.02.09-.039.032-.01c.162-.06.328-.093.496-.103h.005c.041-.002.08-.003.121-.002h.017c.04.001.08.004.12.008l.014.001c.206.021.407.08.596.172l.04.02.076.042.055.034c.022.014.043.028.063.043l.07.052c.015.013.031.024.045.037.039.032.076.065.111.1s.067.071.098.107l.026.033.063.082.024.036.055.086.018.034c.018.032.036.064.051.096l.013.027c.017.037.033.075.047.112l.006.015c.132.363.145.765.028 1.137l-.004.012c-.013.04-.027.08-.043.12l-.01.023c-.038.089-.081.175-.133.256l.052.035-.062-.021c-.019.03-.041.058-.061.086-.058.074-.119.139-.12.14-.023.024-.023.063.002.088.866.865.98.46.999.445.013-.01.022-.028.023-.046" mask="url(#ivwlsiadnb)"/>
                        <path fill="#003154" d="M110.183 46.277c-.554-.554-1.455-.554-2.01 0-.554.554-.554 1.456 0 2.011.555.554 1.456.554 2.01 0 .554-.555.554-1.457 0-2.011M117.877 53.975c-.553-.553-1.456-.553-2.01 0-.553.555-.553 1.457 0 2.011.554.555 1.457.555 2.01 0 .554-.554.554-1.456 0-2.01M106.982 41.414c-.066 0-.13-.031-.171-.09-.433-.621-1.055-1.35-1.756-2.05-.504-.503-1.025-.972-1.51-1.355-.09-.071-.107-.204-.035-.294.074-.091.206-.105.295-.035.497.393 1.031.873 1.546 1.388.717.717 1.359 1.465 1.803 2.107.067.094.043.225-.052.29-.036.026-.078.039-.12.039M108.054 42.255c-.205-.205-.538-.205-.743 0-.205.206-.205.539 0 .744.205.204.538.204.743 0 .205-.205.205-.538 0-.744m.204.948c-.318.318-.833.318-1.15 0-.319-.318-.319-.834 0-1.152.317-.318.832-.318 1.15 0 .318.318.318.834 0 1.152" mask="url(#ivwlsiadnb)"/>
                        <path fill="#003154" d="M102.047 36.05c-.293-.294-.769-.294-1.062 0-.293.293-.293.77 0 1.062.293.294.769.294 1.062 0 .294-.293.294-.769 0-1.062zm-6.03 14.063c0-1.031-.339-1.746-1.015-2.144-.524-.304-1.344-.456-2.46-.456-.803 0-1.229.123-1.28.368-.05.287-.076 1.116-.076 2.486 0 .195.004.483.012.863.01.38.013.664.013.85 0 .042.135.084.406.127.516.076 1.056.114 1.623.114 1.85 0 2.776-.735 2.776-2.208zm5.324 11.38c0 .059-.084.102-.254.127-.32.05-1.128.076-2.421.076-1.107 0-1.86-.026-2.256-.076-.187-.025-.292-.046-.317-.064-.051-.025-.11-.11-.179-.253-.126-.33-.312-.82-.557-1.471-.33-.846-.845-2.094-1.547-3.743-.152-.33-.503-.512-1.052-.546.253.017-.182.026-1.306.026-.127 0-.19.215-.19.646 0 .576.052 1.434.158 2.576.106 1.141.159 2 .159 2.575 0 .144-.038.229-.114.254l-.356.025c-.498.034-1.276.05-2.332.05-1.21 0-1.936-.025-2.18-.075-.246-.05-.368-.182-.368-.393 0-.93.044-2.335.133-4.212.089-1.878.133-3.286.133-4.225 0-3.577-.08-6.368-.24-8.372l-.014-.178c-.008-.144.125-.241.4-.292.274-.05 1.565-.1 3.873-.152 1.563-.033 2.81-.05 3.74-.05 1.928 0 3.499.435 4.716 1.306 1.378.981 2.067 2.398 2.067 4.25 0 1.235-.178 2.22-.533 2.956-.355.736-1.01 1.45-1.964 2.144-.195.135-.292.261-.292.38 0-.009.515 1.053 1.547 3.185 1.03 2.13 1.546 3.306 1.546 3.526zM75.946 49.746c-.177.372-.478 1.18-.9 2.423-.456 1.319-.684 2.093-.684 2.32 0 .153.253.238.76.255.262.017.693.025 1.293.025.558 0 .867-.067.926-.202.016-.043.025-.102.025-.178 0-.28-.194-1.049-.582-2.31-.381-1.217-.66-1.995-.838-2.333zm8.99 11.557c0 .152-.107.258-.318.317-.254.068-1.039.101-2.357.101-1.21 0-1.986-.033-2.333-.101-.288-.06-.47-.25-.547-.57-.286-1.218-.51-1.87-.671-1.955-.135-.058-1.268-.089-3.398-.089-1.436 0-2.201.039-2.294.115-.144.135-.305.587-.482 1.358-.16.701-.356 1.082-.583 1.14-.287.069-1.25.102-2.891.102-1.293 0-1.94-.122-1.94-.368 0-.22.955-2.922 2.866-8.105 2.07-5.608 3.194-8.69 3.372-9.249.102-.321.22-.481.355-.481.228 0 .581.02 1.058.062.478.043.835.064 1.072.064.228 0 .564-.014 1.008-.045.443-.029.775-.044.995-.044.16 0 .309.14.444.418.414.889 1.622 3.933 3.625 9.134 2.012 5.236 3.018 7.967 3.018 8.196zm-18.092-2.55c0 .135-.09.313-.267.533-1.555 1.852-3.622 2.778-6.2 2.778-2.636 0-4.775-.902-6.415-2.703-1.597-1.741-2.396-3.94-2.396-6.595 0-2.572.781-4.754 2.345-6.547 1.632-1.878 3.707-2.816 6.225-2.816 2.739 0 4.886.842 6.441 2.525.17.185.254.35.254.494 0 .161-.294.757-.881 1.789-.588 1.031-.958 1.61-1.11 1.738-.068.067-.152.1-.253.1-.043 0-.254-.168-.634-.507-.457-.405-.905-.722-1.344-.95-.668-.339-1.361-.508-2.08-.508-1.242 0-2.235.466-2.98 1.395-.683.863-1.026 1.928-1.026 3.198 0 1.285.343 2.363 1.027 3.235.744.946 1.737 1.42 2.98 1.42.735 0 1.432-.16 2.091-.482.431-.211.87-.507 1.32-.888.37-.321.578-.482.62-.482.084 0 .169.047.254.14.135.151.502.68 1.103 1.585.617.94.926 1.455.926 1.548zm56.722-21.005c.017.228-.101.342-.355.342-.16 0-.624-.093-1.387-.28-.766-.185-1.237-.311-1.414-.38-1.767.694-3.462 1.04-5.085 1.04-2.61 0-4.754-.87-6.428-2.613-1.657-1.716-2.484-3.886-2.484-6.508 0-2.68.802-4.905 2.408-6.673 1.657-1.827 3.808-2.74 6.454-2.74 1.284 0 2.493.246 3.625.737 1.226.54 2.19 1.301 2.891 2.283.144.202.216.346.216.43 0 .272-.379.878-1.135 1.821-.757.943-1.244 1.414-1.465 1.414-.05 0-.245-.172-.583-.52-.413-.414-.837-.735-1.268-.963-.642-.347-1.352-.52-2.13-.52-1.267 0-2.273.473-3.017 1.42-.693.872-1.04 1.958-1.04 3.26 0 1.38.36 2.47 1.078 3.274.744.828 1.796 1.243 3.157 1.243.863 0 1.826-.216 2.89-.648-.025-.279-.1-.988-.227-2.13-.11-.88-.165-1.59-.165-2.132 0-.16.055-.258.165-.292.042-.016.11-.025.202-.025.246 0 .616.024 1.11.07.495.046.868.07 1.122.07.27 0 .675-.02 1.217-.058.54-.037.946-.057 1.217-.057.21 0 .317.14.317.419 0 .406-.024 1.019-.07 1.84-.046.82-.07 1.433-.07 1.84 0 1.09.081 2.722.242 4.896l.012.14zm-19.043-17c0 .965-.04 2.412-.12 4.345-.08 1.933-.12 3.385-.12 4.358v8.36c0 .228-.123.342-.368.342-.203 0-.51.008-.92.025-.41.018-.716.026-.919.026-.219 0-.549-.017-.989-.05-.439-.034-.769-.051-.988-.051-.152 0-.334-.14-.545-.419-.609-.82-1.978-2.639-4.108-5.455-.583-.786-1.47-1.945-2.662-3.476-.035-.05-.098-.102-.191-.152-.068.06-.101.152-.101.279 0 .981.027 2.453.082 4.415.055 1.962.082 3.433.082 4.414 0 .296-.114.444-.342.444h-4.386c-.245 0-.368-.13-.368-.393 0-.913.044-2.291.133-4.136.089-1.843.133-3.226.133-4.148 0-.972-.04-2.427-.12-4.363-.08-1.937-.12-3.388-.12-4.352 0-.186.165-.28.494-.28.49 0 1.094-.033 1.812-.1.17-.018.504-.072 1.003-.166.422-.075.756-.114 1.001-.114.101 0 .258.144.469.432l4.729 6.482c.423.583 1.06 1.438 1.915 2.563.21.262.392.393.545.393.11 0 .165-.33.165-.99 0-.888-.05-2.224-.146-4.008-.098-1.785-.146-3.125-.146-4.022 0-.313.088-.47.266-.47.508 0 1.272-.02 2.295-.062 1.023-.043 1.788-.064 2.295-.064.16 0 .24.13.24.393zm-19.55 8.03c0 .999.026 2.5.077 4.504.05 2.004.076 3.506.076 4.503 0 .17-.038.276-.114.318-.017.008-.127.025-.33.05-.55.068-1.285.102-2.207.102-1.234 0-2.02-.034-2.358-.102-.245-.05-.367-.181-.367-.393 0 .135.038-.61.114-2.233.153-3.425.228-5.675.228-6.749 0-.904-.03-2.262-.089-4.072-.06-1.81-.088-3.167-.088-4.072 0-.186.097-.28.291-.28.262 0 .658.014 1.186.039.528.026.923.038 1.185.038s.65-.012 1.16-.038c.511-.025.898-.038 1.16-.038.245 0 .368.093.368.279 0 .905-.048 2.263-.146 4.072-.097 1.81-.146 3.168-.146 4.072zm-6.732-3.818c0 .363-.067.68-.203.951-1.107 2.19-2.616 4.496-4.526 6.915-.27.355-.405.676-.405.963 0 .448.025 1.121.076 2.018.05.896.075 1.564.075 2.003 0 .153-.033.246-.1.28-.018.008-.132.03-.343.063-.304.051-1.065.077-2.282.077-1.225 0-2.008-.026-2.346-.077-.236-.033-.355-.156-.355-.368 0-.448.038-1.13.115-2.048.075-.918.114-1.605.114-2.062 0-.27-.102-.563-.305-.875-1.022-1.446-2.485-3.662-4.386-6.648-.195-.33-.292-.6-.292-.811 0-.508-.026-1.269-.076-2.284s-.076-1.776-.076-2.284c0-.279.084-.418.253-.418.516 0 1.298.021 2.346.064 1.047.042 1.834.062 2.358.062.195 0 .292.064.292.192 0 .43-.02 1.08-.058 1.946-.037.867-.056 1.517-.056 1.947 0 .254.371.889 1.115 1.904.592.794 1.077 1.408 1.458 1.84.347-.407.808-1.016 1.382-1.828.727-1.015 1.09-1.628 1.09-1.84 0-.422-.031-1.063-.094-1.921-.064-.859-.096-1.5-.096-1.922 0-.178.038-.28.114-.305h.318c.506 0 1.27-.023 2.288-.07 1.018-.046 1.785-.07 2.301-.07.17 0 .253.183.253.547 0 .448.009 1.122.026 2.023.016.9.025 1.579.025 2.036zm-17.04 6.965c0 2.156-.258 3.628-.773 4.414-.947 1.438-3.309 2.157-7.087 2.157-1.708 0-3.022-.131-3.943-.393-1.47-.424-2.426-1.231-2.865-2.423-.22-.584-.33-1.624-.33-3.121 0-.347.013-.863.038-1.548s.038-1.196.038-1.535c0-.98-.046-2.452-.14-4.415-.093-1.962-.14-3.429-.14-4.402 0-.203.09-.304.267-.304.516 0 1.296.021 2.34.064 1.043.042 1.823.062 2.339.062.21 0 .317.094.317.28 0 1.117-.037 2.788-.108 5.017-.072 2.229-.108 3.9-.108 5.018 0 1.327.14 2.224.418 2.688.372.636 1.15.952 2.333.952 1.733 0 2.599-.842 2.599-2.525 0-1.225-.03-3.065-.088-5.518-.06-2.452-.09-4.291-.09-5.519 0-.26.107-.393.318-.393.498 0 1.25-.02 2.257-.062 1.005-.043 1.757-.064 2.256-.064.245 0 .368.101.368.304 0 .973-.04 2.44-.12 4.402-.081 1.963-.12 3.434-.12 4.415 0 .27.003.679.011 1.224.01.546.013.954.013 1.225zm-21.82.697c0-.761-.316-1.277-.95-1.548-.405-.168-1.065-.254-1.978-.254-1.09 0-1.682.04-1.775.121-.093.081-.14.598-.14 1.554 0 .998.056 1.55.166 1.656.11.106.718.158 1.825.158.913 0 1.555-.072 1.928-.215.616-.246.925-.736.925-1.472zm-.38-7.09c0-.729-.363-1.21-1.09-1.448-.406-.126-1.073-.19-2.003-.19-.912 0-1.37.068-1.37.203 0 .16-.014.405-.044.73-.03.325-.043.568-.043.73 0 .845.071 1.318.215 1.42.093.076.63.114 1.61.114 1.817 0 2.725-.52 2.725-1.56zm5.452 7.14c0 1.557-.485 2.847-1.458 3.87-1.107 1.176-3.051 1.763-5.832 1.763-.21 0-.516-.004-.912-.012h-.9c-3.12 0-4.975-.063-5.567-.19-.245-.05-.367-.183-.367-.394 0-.905.052-2.275.158-4.11.106-1.835.159-3.21.159-4.123 0-.98-.05-2.825-.153-5.531-.025-.693-.071-1.733-.139-3.121l-.013-.177c-.008-.161.125-.258.4-.292.274-.034 1.253-.05 2.935-.05 2.696 0 4.273.007 4.729.025 2.079.075 3.613.414 4.602 1.015 1.31.803 1.965 2.16 1.965 4.071 0 .5-.152 1.028-.457 1.586-.219.398-.506.795-.861 1.193-.313.346-.47.507-.47.482 0 .06.11.152.33.279.592.338 1.057.875 1.395 1.611.305.66.456 1.362.456 2.106z" mask="url(#ivwlsiadnb)"/>
                        <path fill="#003154" d="M107.351 42.937c-.28 0-.68-.175-1.218-.531-.68-.448-1.492-1.132-2.284-1.926-.793-.793-1.476-1.605-1.924-2.283-.53-.806-.66-1.297-.406-1.55.104-.106.26-.144.45-.114.114.017.194.123.176.238-.017.114-.117.194-.238.176-.073-.011-.099 0-.098 0-.093.208.614 1.514 2.336 3.237 1.712 1.714 3.018 2.43 3.243 2.33-.004-.005.003-.04-.014-.12-.023-.114.05-.225.163-.249.118-.021.224.05.248.164.045.218.01.388-.103.502-.084.084-.192.126-.33.126" mask="url(#ivwlsiadnb)"/>
                    </g>
                </g>
                <text fill="#003154" stroke="#003154" font-family="Neufreit-ExtraBold, Neufreit" font-size="26" font-weight="700" letter-spacing="-.743" transform="translate(-89.000000, -342.000000) translate(90.000000, 342.000000)">
                    <tspan x="0" y="113">PRICING SYSTEM</tspan>
                </text>
            </g>
        </g>
    </g>
</svg>
