<svg width="29" height="29" xmlns="http://www.w3.org/2000/svg" xmlns:xlink="http://www.w3.org/1999/xlink">
    <defs>
        <path d="M17.583 6.058c.85-.985 1.424-2.359 1.267-3.725-1.226.047-2.709.783-3.588 1.768-.79.874-1.478 2.27-1.293 3.61 1.368.1 2.763-.666 3.614-1.653m3.066 8.671c.034 3.531 3.232 4.706 3.268 4.721-.026.083-.511 1.675-1.685 3.32-1.016 1.42-2.07 2.836-3.73 2.866-1.63.03-2.154-.926-4.02-.926-1.864 0-2.446.896-3.99.955-1.602.057-2.823-1.537-3.845-2.954-2.093-2.897-3.692-8.186-1.545-11.756C6.17 9.183 8.074 8.059 10.143 8.03c1.573-.029 3.058 1.014 4.02 1.014.961 0 2.766-1.254 4.663-1.07.794.032 3.024.307 4.455 2.315-.116.069-2.66 1.487-2.632 4.439" id="a"/>
    </defs>
    <g transform="translate(.229 .364)" fill="none" fill-rule="evenodd">
        <path d="M0 0h28v28H0z"/>
        <use fill="#FFF" xlink:href="#a"/>
    </g>
</svg>
