<svg xmlns="http://www.w3.org/2000/svg" width="24" height="24" viewBox="0 0 24 24">
    <g fill="none" fill-rule="evenodd">
        <g>
            <g>
                <g>
                    <g>
                        <path fill="#BDBDBD" d="M11.998 4.42L19 11.612l-.01 8.376H16v-7c0-.553-.448-1-1-1H9c-.553 0-1 .447-1 1v7H5l.006-8.417 6.992-7.151zM14 13.988v6h-4v-6h4zm6.424-3.815l-7.709-7.884c-.377-.385-1.053-.385-1.43 0l-7.71 7.885c-.365.375-.575.899-.575 1.438v8.376c0 1.103.847 2 1.888 2H19.111c1.041 0 1.89-.897 1.89-2v-8.376c0-.54-.21-1.063-.577-1.44z" transform="translate(-35.000000, -725.000000) translate(0.000000, 716.000000) translate(0.000000, 1.000000) translate(35.000000, 8.000000)"/>
                    </g>
                </g>
            </g>
        </g>
    </g>
</svg>
