<svg xmlns="http://www.w3.org/2000/svg" width="30" height="30" viewBox="0 0 30 30">
    <g fill="none" fill-rule="evenodd">
        <g fill="#FFF">
            <g>
                <g>
                    <g>
                        <path d="M7.628 19.842l3.722-.339 7-7.006-3.37-3.371-7.022 7.02-.33 3.696zm9.026-12.39l3.37 3.369 2.433-2.438-3.367-3.367-2.436 2.436zM5.366 22.107c-.263-.263-.394-.628-.361-.998l.473-5.212c.053-.571.305-1.11.713-1.518L17.436 3.134c.877-.88 2.468-.837 3.395.087l3.422 3.422.002.001c.956.958.995 2.48.085 3.393L13.093 21.283c-.406.406-.945.659-1.517.711l-5.213.474c-.037.003-.075.004-.114.004-.328 0-.647-.13-.883-.365zm19.633 4.115c0 .687-.562 1.25-1.25 1.25H6.25c-.686 0-1.25-.563-1.25-1.25 0-.686.564-1.25 1.25-1.25h17.5c.688 0 1.25.564 1.25 1.25z" transform="translate(-173.000000, -661.000000) translate(0.000000, 603.000000) translate(98.500000, 58.000000) translate(74.500000, 0.000000)"/>
                    </g>
                </g>
            </g>
        </g>
    </g>
</svg>
