<svg xmlns="http://www.w3.org/2000/svg" width="24" height="24" viewBox="0 0 24 24">
    <g fill="none" fill-rule="evenodd">
        <g fill="#BDBDBD">
            <g>
                <g>
                    <g>
                        <path d="M19 20c0 .552-.447 1-1 1-.553 0-1-.448-1-1 0-2.757-2.243-5-5-5s-5 2.243-5 5c0 .552-.447 1-1 1-.553 0-1-.448-1-1 0-3.86 3.141-7 7-7s7 3.14 7 7M12 5c1.103 0 2 .897 2 2s-.897 2-2 2-2-.897-2-2 .897-2 2-2m0 6c2.206 0 4-1.794 4-4s-1.794-4-4-4-4 1.794-4 4 1.794 4 4 4" transform="translate(-223.000000, -725.000000) translate(0.000000, 716.000000) translate(188.000000, 1.000000) translate(35.000000, 8.000000)"/>
                    </g>
                </g>
            </g>
        </g>
    </g>
</svg>
