<svg xmlns="http://www.w3.org/2000/svg" width="24" height="24" viewBox="0 0 24 24">
    <g fill="none" fill-rule="evenodd">
        <g>
            <g>
                <g>
                    <path d="M0 24L24 24 24 0 0 0z" transform="translate(-311.000000, -258.000000) translate(20.000000, 236.000000) translate(303.000000, 34.000000) rotate(-270.000000) translate(-303.000000, -34.000000) translate(291.000000, 22.000000)"/>
                    <path fill="#000" d="M13.595 12.48c-.264-.265-.264-.695 0-.96l6.174-6.173c.308-.308.308-.809 0-1.116-.308-.308-.807-.308-1.115 0l-6.174 6.174c-.265.265-.695.265-.96 0L5.347 4.231c-.307-.308-.807-.308-1.115 0-.308.307-.308.808 0 1.116l6.174 6.173c.265.265.265.695 0 .96L4.23 18.653c-.308.309-.308.808 0 1.116.155.154.356.231.558.231.202 0 .404-.077.557-.231l6.175-6.174c.264-.265.694-.265.96 0l6.173 6.174c.154.154.356.231.557.231.203 0 .404-.077.558-.231.308-.308.308-.807 0-1.116l-6.174-6.173z" transform="translate(-311.000000, -258.000000) translate(20.000000, 236.000000) translate(303.000000, 34.000000) rotate(-270.000000) translate(-303.000000, -34.000000) translate(291.000000, 22.000000)"/>
                </g>
            </g>
        </g>
    </g>
</svg>
