<svg width="16" height="16" xmlns="http://www.w3.org/2000/svg">
    <g fill="none" fill-rule="evenodd">
        <circle fill="#000" opacity=".2" cx="8.5" cy="8.5" r="5.5"/>
        <path d="M11.008 9.437a1.11 1.11 0 1 1-1.571 1.57L8 9.572l-1.437 1.437a1.108 1.108 0 0 1-1.57 0 1.11 1.11 0 0 1 0-1.571L6.428 8 4.992 6.563a1.11 1.11 0 1 1 1.571-1.57L8 6.428l1.437-1.437a1.11 1.11 0 1 1 1.57 1.571L9.572 8l1.437 1.437zM8 1.333A6.674 6.674 0 0 0 1.333 8 6.674 6.674 0 0 0 8 14.667 6.674 6.674 0 0 0 14.667 8 6.674 6.674 0 0 0 8 1.333z" fill="#FFF"/>
    </g>
</svg>
