<svg xmlns="http://www.w3.org/2000/svg" width="12" height="12" viewBox="0 0 12 12">
    <g fill="none" fill-rule="evenodd">
        <g>
            <g>
                <g>
                    <path fill="#FF4A4A" d="M6 1l.217.005C8.877 1.118 11 3.31 11 6l-.005.217C10.882 8.877 8.69 11 6 11c-2.761 0-5-2.239-5-5s2.239-5 5-5zm0 1C3.79 2 2 3.79 2 6s1.79 4 4 4l.2-.005C8.316 9.891 10 8.142 10 6l-.005-.2C9.891 3.684 8.142 2 6 2zm.354 5.646c.195.196.195.512 0 .708-.196.195-.512.195-.708 0-.195-.196-.195-.512 0-.708.196-.195.512-.195.708 0zM6 3.5l.09.008c.233.042.41.247.41.492v2.5c0 .276-.224.5-.5.5s-.5-.224-.5-.5V4l.008-.09c.042-.233.247-.41.492-.41z" transform="translate(-24.000000, -263.000000) translate(24.000000, 260.000000) translate(0.000000, 3.000000)"/>
                </g>
            </g>
        </g>
    </g>
</svg>
