<svg xmlns="http://www.w3.org/2000/svg" width="30" height="30" viewBox="0 0 30 30">
    <g fill="none" fill-rule="evenodd">
        <g>
            <g>
                <g>
                    <g>
                        <path fill-rule="nonzero" d="M0 0L30 0 30 30 0 30z" transform="translate(-309.000000, -201.000000) translate(20.000000, 0.000000) translate(0.000000, 128.000000) translate(304.000000, 88.000000) rotate(-270.000000) translate(-304.000000, -88.000000) translate(289.000000, 73.000000)"/>
                        <path fill="#003154" d="M13.125 21.25c-.332.002-.652-.129-.887-.363-.49-.486-.494-1.277-.008-1.767l.007-.007L16.375 15 12.4 10.863c-.485-.488-.485-1.275 0-1.763.486-.49 1.278-.493 1.768-.007l.007.007 4.825 5c.476.486.476 1.264 0 1.75l-5 5c-.227.245-.542.389-.875.4z" transform="translate(-309.000000, -201.000000) translate(20.000000, 0.000000) translate(0.000000, 128.000000) translate(304.000000, 88.000000) rotate(-270.000000) translate(-304.000000, -88.000000) translate(289.000000, 73.000000) translate(15.612536, 14.990138) scale(1, -1) rotate(-180.000000) translate(-15.612536, -14.990138)"/>
                    </g>
                </g>
            </g>
        </g>
    </g>
</svg>
