<?xml version="1.0" encoding="UTF-8"?>
<svg width="24px" height="24px" viewBox="0 0 24 24" version="1.1" xmlns="http://www.w3.org/2000/svg" xmlns:xlink="http://www.w3.org/1999/xlink">
    <title>187B8463-4CD7-438B-826D-47B4E2C1AF3E</title>
    <g id="ododoc_ui" stroke="none" stroke-width="1" fill="none" fill-rule="evenodd">
        <g id="27" transform="translate(-223.000000, -725.000000)">
            <g id="Group-4" transform="translate(0.000000, 716.000000)">
                <g id="Group-2" transform="translate(188.000000, 1.000000)">
                    <g id="Group-7" transform="translate(35.000000, 8.000000)">
                        <polygon id="Path-2" fill="#FFF000" points="5.84714607 20 18.1786468 20 16.0787082 15.7311502 13.261985 14.2197363 11.2085074 14.2197363 8.32552952 15.7311502 5.84714607 17.7552394"></polygon>
                        <circle id="Oval" fill="#FFF000" cx="12" cy="7" r="3"></circle>
                        <g id="27)-Icon/person" fill="#003154">
                            <path d="M19,20 C19,20.552 18.553,21 18,21 C17.447,21 17,20.552 17,20 C17,17.243 14.757,15 12,15 C9.243,15 7,17.243 7,20 C7,20.552 6.553,21 6,21 C5.447,21 5,20.552 5,20 C5,16.14 8.141,13 12,13 C15.859,13 19,16.14 19,20 M12,5 C13.103,5 14,5.897 14,7 C14,8.103 13.103,9 12,9 C10.897,9 10,8.103 10,7 C10,5.897 10.897,5 12,5 M12,11 C14.206,11 16,9.206 16,7 C16,4.794 14.206,3 12,3 C9.794,3 8,4.794 8,7 C8,9.206 9.794,11 12,11" id="🎨-Icon-Сolor"></path>
                        </g>
                    </g>
                </g>
            </g>
        </g>
    </g>
</svg>