<svg xmlns="http://www.w3.org/2000/svg" width="24" height="24" viewBox="0 0 24 24">
    <g fill="none" fill-rule="evenodd">
        <g>
            <g>
                <g>
                    <g>
                        <g>
                            <path fill="#FFF000" d="M0.57 9.437L9 1.351 16.633 9.437 16.633 18.981 0.961 18.981z" transform="translate(-35.000000, -725.000000) translate(0.000000, 716.000000) translate(0.000000, 1.000000) translate(35.000000, 8.000000) translate(3.000200, 2.000050)"/>
                            <path fill="#003154" d="M8.998 2.42L16 9.612l-.01 8.376H13v-7c0-.553-.448-1-1-1H6c-.553 0-1 .447-1 1v7H2l.006-8.417L8.998 2.42zM11 11.988v6H7v-6h4zm6.424-3.815L9.715.289c-.377-.385-1.053-.385-1.43 0L.575 8.174C.21 8.549 0 9.073 0 9.612v8.376c0 1.103.847 2 1.888 2H16.111c1.041 0 1.889-.897 1.889-2V9.612c0-.54-.21-1.063-.576-1.44z" transform="translate(-35.000000, -725.000000) translate(0.000000, 716.000000) translate(0.000000, 1.000000) translate(35.000000, 8.000000) translate(3.000200, 2.000050)"/>
                        </g>
                    </g>
                </g>
            </g>
        </g>
    </g>
</svg>
