<svg xmlns="http://www.w3.org/2000/svg" width="59" height="32" viewBox="0 0 59 32">
    <g fill="none" fill-rule="evenodd">
        <g>
            <g>
                <g>
                    <path fill="#003154" d="M9.877 0L0 10.458 0 21.042 9.877 31.5 48.898 31.5 58.774 21.042 58.774 10.457 48.898 0z" transform="translate(-20.000000, -628.000000) translate(0.000000, 603.000000) translate(20.000000, 25.000000)"/>
                    <path fill="#FFF000" d="M48.014 29.579L56.854 20.408 56.854 11.476 48.014 2.305 10.761 2.305 1.921 11.476 1.921 20.408 10.761 29.579z" transform="translate(-20.000000, -628.000000) translate(0.000000, 603.000000) translate(20.000000, 25.000000)"/>
                    <g fill="#003154">
                        <path d="M29.169 11.118l4.479 4.482 3.246-3.247-4.48-4.482-2.182.019-1.044 1.045-.02 2.183zm4.479 4.938l-4.802-4.806.021-2.45 1.23-1.23 2.45-.023 4.802 4.806-3.701 3.703z" transform="translate(-20.000000, -628.000000) translate(0.000000, 603.000000) translate(20.000000, 25.000000) translate(11.300305, 7.850464)"/>
                        <path d="M34.488 14.113c0-.007-.002-.014-.007-.019l.076-.033c.177-.208.173-.32.099-.433.058-.087.343-.544.192-.806.022-.072.149-.502.175-.661l.001-.008c.007-.04.014-.078.018-.115 0-.004 0-.007-.002-.01l-.008-.16c0-.006-.101-.166-.106-.17l-1.35-1.35c-.128-.13-.244-.158-.391-.167h-.005l-.067-.003c-.154-.004-.841-.034-.93-.038l-.013-.013c-.2-.204-.544-.555-.983-.687-.004-.004-.01-.005-.017-.005-.184-.052-.385-.066-.598-.013l-.004.001-.092.027-.06-.059c-.005-.005-.014-.008-.022-.006-.014.003-.305.11-.493.387-.033.048.007.113.055.168l.001.002.133.133c.005.004.011.007.018.007.007 0 .013-.004.018-.008.012-.014.024-.029.037-.042.262-.262.688-.262.95 0s.262.688 0 .95l-.042.038c-.005.004-.008.01-.008.017 0 .007.002.014.007.019l.133.133 1.724 1.724c.003.003.006.005.01.006.061.048.14.058.228.03.007.002.016.001.023-.004.008-.007.017-.012.025-.018l.041-.028.013-.007.043-.023.017-.008.035-.015.012-.004c.062-.022.126-.035.19-.039h.002l.047-.001h.007l.045.003h.006c.079.009.156.03.229.066l.015.008c.01.005.02.01.03.017l.02.013.025.016.026.02.018.014c.015.012.029.025.043.039l.037.04.01.013c.008.01.017.02.024.032l.01.014.02.033.008.013.02.037c0 .003.002.007.004.01.007.014.013.029.018.043l.002.006c.052.14.056.294.011.437v.004l-.018.046-.004.01c-.014.033-.03.066-.05.098l.02.013-.024-.008-.024.033c-.022.028-.046.053-.046.053-.009.01-.009.025 0 .034.333.333.377.178.385.172.005-.005.008-.011.008-.018" transform="translate(-20.000000, -628.000000) translate(0.000000, 603.000000) translate(20.000000, 25.000000) translate(11.300305, 7.850464)"/>
                        <path d="M31.026 10.119c-.213-.213-.559-.213-.772 0-.213.213-.213.56 0 .772.213.213.56.213.772 0 .213-.213.213-.56 0-.772M33.982 13.076c-.213-.213-.56-.213-.772 0-.213.213-.213.56 0 .773.213.213.56.213.772 0 .212-.213.212-.56 0-.773M29.797 8.25c-.026 0-.05-.011-.066-.034-.166-.239-.406-.518-.675-.787-.193-.194-.394-.374-.58-.521-.035-.027-.04-.078-.013-.113.028-.035.079-.04.113-.013.19.15.396.335.594.533.275.276.522.563.693.81.025.036.016.086-.02.111-.014.01-.03.015-.046.015M30.48 8.675c-.125-.126-.33-.126-.455 0-.126.127-.126.331 0 .457s.33.126.456 0 .126-.33 0-.457m.126.582c-.196.196-.512.196-.708 0-.195-.195-.195-.512 0-.707.196-.195.512-.195.708 0 .195.195.195.512 0 .707" transform="translate(-20.000000, -628.000000) translate(0.000000, 603.000000) translate(20.000000, 25.000000) translate(11.300305, 7.850464)"/>
                        <path d="M27.9 6.19c-.112-.113-.295-.113-.407 0-.113.113-.113.296 0 .408.112.113.295.113.408 0 .113-.112.113-.295 0-.408zm-2.316 5.402c0-.396-.13-.67-.39-.823-.2-.117-.516-.175-.944-.175-.309 0-.473.047-.492.14-.02.111-.03.43-.03.956 0 .075.002.185.005.331.004.147.005.256.005.327 0 .016.052.032.156.049.198.029.406.044.623.044.711 0 1.067-.283 1.067-.849zm2.045 4.372c0 .023-.032.039-.097.049-.123.019-.433.029-.93.029-.425 0-.714-.01-.867-.03-.071-.009-.112-.017-.122-.024-.02-.01-.042-.042-.068-.097l-.214-.565c-.127-.325-.325-.805-.595-1.438-.058-.127-.193-.196-.404-.21.098.007-.07.01-.501.01-.05 0-.073.083-.073.249 0 .22.02.55.06.989.04.439.061.768.061.99 0 .055-.014.087-.043.097l-.137.01c-.192.012-.49.019-.896.019-.464 0-.744-.01-.837-.03-.095-.019-.142-.07-.142-.15 0-.358.017-.897.051-1.618.034-.722.051-1.263.051-1.623 0-1.374-.03-2.447-.092-3.216l-.005-.069c-.003-.055.048-.092.153-.112.106-.02.602-.039 1.488-.058.6-.013 1.08-.02 1.437-.02.74 0 1.344.168 1.812.502.529.377.794.921.794 1.633 0 .474-.069.853-.205 1.135-.136.283-.388.557-.755.824-.075.052-.112.1-.112.146 0-.003.198.405.594 1.223.396.819.594 1.27.594 1.355zm-9.755-4.513c-.068.143-.184.453-.346.931-.175.507-.263.804-.263.892 0 .058.098.09.293.097.1.007.266.01.496.01.215 0 .333-.026.356-.078.006-.016.01-.039.01-.068 0-.107-.075-.403-.224-.887-.147-.468-.253-.767-.322-.897zm3.453 4.44c0 .058-.04.099-.122.122-.097.026-.399.039-.905.039-.465 0-.763-.013-.896-.04-.11-.022-.18-.095-.21-.219-.11-.467-.196-.717-.258-.75-.052-.023-.487-.034-1.305-.034-.552 0-.846.014-.882.044-.055.052-.117.225-.185.521-.062.27-.136.416-.224.439-.11.026-.48.039-1.11.039-.497 0-.746-.047-.746-.142 0-.084.367-1.122 1.101-3.113.796-2.155 1.227-3.339 1.296-3.553.039-.124.084-.185.136-.185.088 0 .223.008.407.024.183.016.32.024.411.024.088 0 .217-.005.387-.017.17-.011.298-.017.383-.017.062 0 .118.054.17.16.16.342.623 1.511 1.393 3.51.773 2.01 1.16 3.06 1.16 3.148zm-6.95-.98c0 .052-.034.12-.102.205-.597.711-1.391 1.067-2.382 1.067-1.012 0-1.834-.346-2.464-1.038-.614-.669-.92-1.514-.92-2.534 0-.988.3-1.826.9-2.515.627-.72 1.424-1.081 2.392-1.081 1.052 0 1.877.323 2.474.97.065.07.097.134.097.19 0 .061-.112.29-.338.687-.226.396-.368.618-.426.667-.026.026-.059.04-.098.04-.016 0-.097-.066-.243-.196-.175-.156-.347-.277-.516-.365-.257-.13-.523-.195-.8-.195-.476 0-.858.179-1.144.536-.263.331-.394.74-.394 1.228 0 .494.131.908.394 1.243.286.363.668.546 1.145.546.283 0 .55-.062.803-.186.166-.08.335-.194.507-.34.143-.124.222-.186.239-.186.032 0 .064.018.097.054.052.058.193.261.424.609.237.36.355.559.355.594zm21.79-8.069c.007.088-.039.132-.136.132-.062 0-.24-.036-.533-.108-.294-.07-.475-.12-.543-.146-.68.267-1.33.4-1.954.4-1.003 0-1.826-.335-2.469-1.004-.636-.66-.954-1.493-.954-2.5 0-1.03.308-1.884.925-2.563C31.139.35 31.966 0 32.982 0c.493 0 .958.094 1.393.283.47.208.84.5 1.11.877.056.078.083.133.083.165 0 .105-.145.338-.436.7-.29.362-.478.543-.563.543-.019 0-.094-.066-.223-.2-.16-.159-.322-.282-.487-.37-.247-.133-.52-.2-.819-.2-.487 0-.873.182-1.159.546-.266.335-.4.752-.4 1.252 0 .53.139.95.415 1.258.286.318.69.477 1.213.477.331 0 .701-.082 1.11-.248-.01-.107-.039-.38-.088-.819-.042-.338-.063-.61-.063-.818 0-.062.021-.1.063-.113.017-.006.043-.01.078-.01.095 0 .237.01.427.028.19.017.333.026.43.026.105 0 .26-.007.468-.022.208-.014.363-.022.468-.022.08 0 .121.054.121.161 0 .156-.009.392-.026.707-.018.315-.027.55-.027.707 0 .419.03 1.046.092 1.88l.005.054zM28.852.312c0 .37-.016.927-.046 1.67-.031.742-.047 1.3-.047 1.673v3.211c0 .088-.046.132-.14.132-.079 0-.196.003-.354.01-.157.006-.275.01-.353.01-.084 0-.211-.007-.38-.02-.169-.013-.295-.02-.38-.02-.058 0-.128-.053-.21-.16-.233-.315-.759-1.014-1.577-2.096-.224-.302-.565-.747-1.023-1.335-.013-.02-.037-.039-.073-.058-.026.022-.039.058-.039.107 0 .377.01.942.032 1.696.02.753.031 1.319.031 1.695 0 .114-.043.171-.131.171h-1.685c-.094 0-.142-.05-.142-.151 0-.35.018-.88.052-1.589.034-.708.05-1.24.05-1.593 0-.374-.015-.933-.046-1.676-.03-.744-.046-1.302-.046-1.672 0-.072.064-.107.19-.107.188 0 .42-.013.696-.04.066-.006.194-.027.386-.063.162-.029.29-.044.384-.044.04 0 .1.056.18.166l1.817 2.49c.162.224.407.553.735.985.082.1.151.15.21.15.042 0 .063-.126.063-.38 0-.34-.019-.854-.056-1.54-.037-.685-.056-1.2-.056-1.544 0-.12.034-.18.103-.18.194 0 .488-.008.881-.025.393-.016.687-.024.881-.024.062 0 .093.05.093.151zm-7.51 3.085c0 .383.01.96.03 1.73.019.77.028 1.346.028 1.73 0 .065-.014.106-.043.122-.007.003-.049.01-.127.02-.211.025-.494.038-.848.038-.474 0-.776-.013-.906-.039-.094-.02-.14-.07-.14-.151 0 .052.014-.234.043-.858.059-1.316.088-2.18.088-2.592 0-.348-.012-.87-.034-1.565-.023-.695-.034-1.216-.034-1.564 0-.071.037-.107.112-.107.1 0 .252.005.455.015.203.01.355.014.455.014.101 0 .25-.005.446-.014.196-.01.345-.015.446-.015.094 0 .14.036.14.107 0 .348-.018.87-.055 1.564-.037.696-.056 1.217-.056 1.565zM18.756 1.93c0 .14-.026.261-.078.365-.426.842-1.005 1.727-1.739 2.656-.104.137-.156.26-.156.37 0 .173.01.431.03.776.019.344.029.6.029.77 0 .058-.013.094-.04.107-.006.003-.05.011-.13.024-.118.02-.41.03-.877.03-.471 0-.772-.01-.902-.03-.09-.013-.136-.06-.136-.141 0-.172.015-.435.044-.787.03-.353.044-.617.044-.792 0-.104-.04-.216-.117-.336-.393-.556-.955-1.407-1.685-2.554-.075-.127-.112-.23-.112-.312 0-.195-.01-.487-.03-.877-.019-.39-.029-.682-.029-.877 0-.108.033-.161.098-.161.198 0 .498.008.9.024.403.017.705.025.907.025.074 0 .112.024.112.073 0 .165-.007.415-.022.748s-.022.582-.022.748c0 .097.143.341.428.73.228.306.414.542.56.708.134-.156.31-.39.532-.702.279-.39.418-.626.418-.707 0-.162-.012-.408-.036-.738-.025-.33-.037-.576-.037-.739 0-.068.015-.107.044-.117h.122c.195 0 .488-.008.879-.027.391-.017.686-.026.884-.026.065 0 .097.07.097.21 0 .172.003.43.01.777.006.346.01.606.01.782zM12.21 4.606c0 .828-.1 1.393-.297 1.695-.364.553-1.271.829-2.723.829-.656 0-1.16-.05-1.514-.151-.565-.163-.932-.473-1.1-.931-.085-.224-.128-.624-.128-1.199 0-.133.005-.331.015-.595.01-.263.015-.46.015-.59 0-.376-.018-.941-.054-1.695C6.388 1.215 6.37.652 6.37.278c0-.078.035-.117.103-.117.198 0 .497.008.898.024.401.017.7.025.899.025.081 0 .122.035.122.107 0 .429-.014 1.071-.042 1.927-.028.856-.041 1.499-.041 1.928 0 .51.053.854.16 1.033.143.244.442.365.897.365.665 0 .998-.323.998-.97 0-.47-.011-1.177-.034-2.12-.023-.942-.034-1.648-.034-2.12 0-.1.04-.15.122-.15.191 0 .48-.008.867-.025.386-.016.675-.024.867-.024.094 0 .14.039.14.117 0 .374-.015.937-.046 1.69-.03.755-.046 1.32-.046 1.697 0 .104.002.26.005.47.003.21.005.366.005.47zm-8.382.267c0-.292-.122-.49-.365-.594-.156-.065-.41-.098-.76-.098-.419 0-.646.016-.682.047-.035.03-.053.23-.053.596 0 .384.02.596.063.637.042.04.276.06.701.06.35 0 .598-.027.74-.082.238-.095.356-.283.356-.566zM3.682 2.15c0-.28-.14-.464-.419-.555-.156-.05-.412-.074-.77-.074-.35 0-.525.027-.525.079 0 .061-.006.155-.017.28-.012.125-.017.218-.017.28 0 .325.027.507.082.546.036.029.242.043.619.043.698 0 1.047-.2 1.047-.599zm2.094 2.744c0 .598-.186 1.093-.56 1.486-.425.452-1.172.677-2.24.677-.081 0-.198-.001-.35-.004h-.347c-1.198 0-1.91-.025-2.138-.073C.047 6.959 0 6.909 0 6.827c0-.347.02-.873.06-1.578.042-.705.062-1.233.062-1.584 0-.377-.02-1.085-.059-2.125C.053 1.274.036.874.01.34L.005.273C.002.211.053.174.158.161.264.148.64.14 1.286.14c1.035 0 1.641.003 1.816.01.8.03 1.389.16 1.768.39.504.309.755.83.755 1.564 0 .192-.058.395-.175.61-.084.152-.195.305-.331.458-.12.133-.18.194-.18.185 0 .023.042.058.126.107.227.13.406.336.536.619.117.253.175.523.175.809z" transform="translate(-20.000000, -628.000000) translate(0.000000, 603.000000) translate(20.000000, 25.000000) translate(11.300305, 7.850464)"/>
                        <path d="M29.938 8.836c-.107 0-.26-.068-.468-.204-.26-.172-.573-.435-.877-.74-.305-.305-.567-.617-.739-.877-.204-.31-.253-.498-.156-.596.04-.04.1-.055.173-.043.044.006.074.047.067.091-.006.044-.045.075-.091.068-.028-.005-.038 0-.038 0-.036.08.236.581.898 1.243.657.659 1.159.934 1.245.895-.001-.002.002-.015-.005-.046-.009-.044.02-.086.063-.095.045-.009.086.019.095.062.017.084.004.15-.04.193-.032.032-.074.049-.127.049" transform="translate(-20.000000, -628.000000) translate(0.000000, 603.000000) translate(20.000000, 25.000000) translate(11.300305, 7.850464)"/>
                    </g>
                </g>
            </g>
        </g>
    </g>
</svg>
