<svg xmlns="http://www.w3.org/2000/svg" width="31" height="30" viewBox="0 0 31 30">
    <g fill="none" fill-rule="evenodd">
        <g>
            <g>
                <path fill="#E6E6E6" d="M15 30c8.284 0 15-6.716 15-15 0-8.284-6.716-15-15-15C6.716 0 0 6.716 0 15c0 8.284 6.716 15 15 15zm0-3.88C8.858 26.12 3.88 21.143 3.88 15 3.88 8.858 8.857 3.88 15 3.88c6.142 0 11.12 4.978 11.12 11.12 0 6.142-4.978 11.12-11.12 11.12z" transform="translate(-60.000000, -28.000000) translate(60.691859, 28.000000)"/>
                <path fill="#003154" d="M14.985 0c6.512 0 12.055 4.15 14.129 9.95l.06.177c.09.224.14.467.14.722 0 1.071-.87 1.94-1.94 1.94-.849 0-1.57-.544-1.833-1.303h-.002C24.1 7.16 20.072 4.014 15.291 3.884l-.306-.004-.152-.006c-1-.077-1.788-.913-1.788-1.933 0-1.072.869-1.94 1.94-1.94z" transform="translate(-60.000000, -28.000000) translate(60.691859, 28.000000)"/>
            </g>
        </g>
    </g>
</svg>
