<svg xmlns="http://www.w3.org/2000/svg" width="31" height="31" viewBox="0 0 31 31">
    <g fill="none" fill-rule="evenodd">
        <g>
            <g>
                <path fill="#E6E6E6" d="M15 30c8.284 0 15-6.716 15-15 0-8.284-6.716-15-15-15C6.716 0 0 6.716 0 15c0 8.284 6.716 15 15 15zm0-3.88C8.858 26.12 3.88 21.143 3.88 15 3.88 8.858 8.857 3.88 15 3.88c6.142 0 11.12 4.978 11.12 11.12 0 6.142-4.978 11.12-11.12 11.12z" transform="translate(-96.000000, -77.000000) translate(96.493622, 77.961878)"/>
                <path fill="#003154" d="M15.027 0C23.3.015 30 6.725 30 15c0 8.284-6.716 15-15 15-8.284 0-15-6.716-15-15 0-1.68.276-3.296.786-4.805l.013.004c.299-.686.983-1.166 1.78-1.166 1.07 0 1.939.868 1.939 1.94 0 .156-.019.308-.054.454l.001.002-.012.042c-.015.059-.034.116-.054.173l.066-.215c-.38 1.12-.586 2.322-.586 3.571 0 6.142 4.98 11.12 11.121 11.12 6.142 0 11.12-4.978 11.12-11.12 0-6.142-4.978-11.12-11.12-11.12h.051v-.003L15 3.879c-1.02 0-1.856-.787-1.934-1.788l-.006-.151C13.06.868 13.93 0 15 0h.027z" transform="translate(-96.000000, -77.000000) translate(96.493622, 77.961878)"/>
            </g>
        </g>
    </g>
</svg>
