<svg xmlns="http://www.w3.org/2000/svg" width="31" height="30" viewBox="0 0 31 30">
    <g fill="none" fill-rule="evenodd">
        <g>
            <g>
                <path fill="#E6E6E6" d="M15 30c8.284 0 15-6.716 15-15 0-8.284-6.716-15-15-15C6.716 0 0 6.716 0 15c0 8.284 6.716 15 15 15zm0-3.88C8.858 26.12 3.88 21.143 3.88 15 3.88 8.858 8.857 3.88 15 3.88c6.142 0 11.12 4.978 11.12 11.12 0 6.142-4.978 11.12-11.12 11.12z" transform="translate(-132.000000, -28.000000) translate(132.500000, 28.000000)"/>
                <path fill="#003154" d="M23.766 27.172c-.02.016-.039.03-.057.042-.303.19-.66.3-1.042.3-1.071 0-1.94-.869-1.94-1.94 0-.614.286-1.162.732-1.517l-.002-.002c2.823-2.017 4.664-5.321 4.664-9.055 0-6.044-4.822-10.962-10.83-11.117L15 3.88l-.152-.006c-1-.077-1.788-.913-1.788-1.933C13.06.868 13.93 0 15 0c8.284 0 15 6.716 15 15 0 4.911-2.36 9.27-6.008 12.007l-.226.165z" transform="translate(-132.000000, -28.000000) translate(132.500000, 28.000000)"/>
            </g>
        </g>
    </g>
</svg>
