<svg xmlns="http://www.w3.org/2000/svg" width="31" height="31" viewBox="0 0 31 31">
    <g fill="none" fill-rule="evenodd">
        <g>
            <g>
                <path fill="#E6E6E6" d="M15 30c8.284 0 15-6.716 15-15 0-8.284-6.716-15-15-15C6.716 0 0 6.716 0 15c0 8.284 6.716 15 15 15zm0-3.88C8.858 26.12 3.88 21.143 3.88 15 3.88 8.858 8.857 3.88 15 3.88c6.142 0 11.12 4.978 11.12 11.12 0 6.142-4.978 11.12-11.12 11.12z" transform="translate(-134.000000, -77.000000) translate(134.391958, 77.961878)"/>
                <path fill="#003154" d="M15 0c8.284 0 15 6.716 15 15 0 8.285-6.716 15-15 15-8.284 0-15-6.715-15-15 0-4.896 2.346-9.244 5.975-11.982.045-.036.091-.071.14-.104l.009-.007c.31-.21.683-.331 1.085-.331 1.07 0 1.94.868 1.94 1.94 0 .613-.286 1.16-.731 1.516l.002.002C5.666 8.06 3.88 11.321 3.88 15c0 6.142 4.978 11.121 11.12 11.121 6.142 0 11.12-4.979 11.12-11.12C26.12 8.858 21.143 3.88 15 3.88h-.001l-.15-.006c-1.001-.078-1.789-.914-1.789-1.934C13.06.869 13.93 0 15 0h-.001H15z" transform="translate(-134.000000, -77.000000) translate(134.391958, 77.961878)"/>
            </g>
        </g>
    </g>
</svg>
